#tb 0: 6/25
#media_type 0: video
#codec_id 0: rawvideo
#dimensions 0: 352x288
#sar 0: 0/1
0,          0,          0,        1,   152064, 0x05b789ef
0,          1,          1,        1,   152064, 0xe20f7c23
0,          2,          2,        1,   152064, 0xc711ad61
0,          3,          3,        1,   152064, 0xf25f6acc
0,          4,          4,        1,   152064, 0xce09f9d6
0,          5,          5,        1,   152064, 0x0f9d6aca
0,          6,          6,        1,   152064, 0x4c9737ab
0,          7,          7,        1,   152064, 0x20cebfa9
0,          8,          8,        1,   152064, 0xbb87b483
